<?xml version="1.0" encoding="UTF-8"?>
<svg version="1.1" xmlns="http://www.w3.org/2000/svg" width="512" height="512">
<path d="M0 0 C1.15935562 -0.00990463 2.31871124 -0.01980927 3.51319885 -0.03001404 C4.77619812 -0.02551239 6.03919739 -0.02101074 7.34046936 -0.01637268 C8.69106613 -0.02207822 10.04165807 -0.0290432 11.39224243 -0.03717041 C15.05345915 -0.05509712 18.71443614 -0.0539344 22.37568355 -0.04822803 C25.43482547 -0.04513537 28.4939214 -0.05122949 31.55305678 -0.05726677 C38.7712958 -0.07130885 45.98941647 -0.06975346 53.20765686 -0.05836487 C60.64849749 -0.04688432 68.08897766 -0.06095874 75.52977079 -0.08776134 C81.92399345 -0.1099297 88.31810305 -0.11655317 94.7123614 -0.11068493 C98.52882778 -0.10731678 102.34506313 -0.1097207 106.16149712 -0.12693596 C109.75101952 -0.1424213 113.34000866 -0.13843263 116.92951012 -0.11963081 C118.87016507 -0.11419733 120.81084406 -0.12844707 122.75144958 -0.14332581 C133.45405952 -0.05276209 133.45405952 -0.05276209 138.2000885 4.38768005 C140.83081729 8.24608228 141.54769987 11.50267696 141.69618225 16.1650238 C140.25554294 22.61954168 135.7460041 27.25577518 131.14930725 31.6962738 C130.57227554 32.266689 129.99524384 32.83710419 129.40072632 33.42480469 C127.57006217 35.23226361 125.72951147 37.02920239 123.8875885 38.82518005 C121.47101835 41.19502537 119.05878722 43.56922103 116.64930725 45.9462738 C116.0700499 46.51698608 115.49079254 47.08769836 114.89398193 47.67570496 C111.38260518 51.1550679 108.05285541 54.72389346 104.85316467 58.49436951 C101.42275269 62.42330835 97.69762557 66.07460503 94.0125885 69.76268005 C93.21917053 70.56834412 92.42575256 71.37400818 91.60829163 72.2040863 C90.84065491 72.97365662 90.07301819 73.74322693 89.28211975 74.53611755 C88.59351868 75.22882751 87.9049176 75.92153748 87.19544983 76.63523865 C82.96764091 80.34834429 79.35607538 80.67224959 73.86122131 80.61473083 C73.12911942 80.61502289 72.39701752 80.61531494 71.64273071 80.61561584 C69.22943661 80.61422553 66.81645349 80.59867854 64.4032135 80.58299255 C62.72741362 80.57926136 61.05161156 80.57641489 59.37580872 80.57441711 C54.96990411 80.56678902 50.56413183 80.54714761 46.15827942 80.52500916 C41.66051524 80.50453298 37.16272963 80.49541161 32.66493225 80.4853363 C23.8432596 80.46390094 15.02168506 80.42977493 6.2000885 80.38768005 C6.20285388 81.32859245 6.20561926 82.26950485 6.20846844 83.23892975 C6.27508825 106.14094703 6.32437584 129.04295173 6.35552502 151.94504547 C6.37098918 163.02035975 6.39207016 174.09561 6.42640686 185.17088318 C6.45632293 194.82489201 6.47566678 204.47885445 6.48235399 214.13290834 C6.48626248 219.24392724 6.49543875 224.35481345 6.51727867 229.46578979 C6.53767862 234.2788935 6.54391518 239.09181017 6.53941154 243.904953 C6.54023517 245.66896583 6.54617987 247.43298508 6.55770493 249.19696045 C6.57270418 251.61163185 6.56901538 254.02560364 6.56085205 256.44029236 C6.56959058 257.13292411 6.5783291 257.82555587 6.58733243 258.53917646 C6.52972166 264.8746939 4.97449711 270.19094329 1.00086975 275.1103363 C-0.23082947 276.26855896 -0.23082947 276.26855896 -1.4874115 277.45018005 C-2.29565369 278.22490662 -3.10389587 278.99963318 -3.93663025 279.7978363 C-5.45045381 281.16709281 -6.96858153 282.53223297 -8.51847839 283.86051941 C-13.82479389 288.41056057 -18.75350645 293.25621936 -23.64756775 298.2431488 C-25.32110581 299.93419113 -26.99494285 301.6249376 -28.66905212 303.31541443 C-31.27468843 305.95205557 -33.87790893 308.59095255 -36.47593689 311.23509216 C-39.00551929 313.80709243 -41.54453022 316.36947527 -44.08506775 318.9306488 C-44.85504593 319.71924789 -45.62502411 320.50784698 -46.41833496 321.32034302 C-56.36340383 331.31218655 -56.36340383 331.31218655 -63.7999115 331.88768005 C-68.34456301 331.63176764 -71.13290606 330.04805655 -74.7999115 327.38768005 C-78.67066265 322.74684286 -78.22860948 317.93872768 -78.2010498 312.19068909 C-78.20784647 311.15413362 -78.21464314 310.11757816 -78.22164577 309.04961193 C-78.2406584 305.57121669 -78.23817827 302.09317233 -78.23570251 298.61473083 C-78.24467744 296.1229151 -78.25488507 293.63110354 -78.26623535 291.13929749 C-78.29000906 285.07026289 -78.29939918 279.0013666 -78.30107249 272.93229832 C-78.30249859 267.99873082 -78.30866592 263.06519214 -78.31817436 258.13163376 C-78.34458954 244.1408873 -78.35843311 230.15020984 -78.35618294 216.15943827 C-78.35606307 215.40540747 -78.3559432 214.65137667 -78.3558197 213.87449646 C-78.35569706 213.11954399 -78.35557442 212.36459152 -78.35544806 211.5867617 C-78.35422859 199.35055494 -78.38294009 187.1146251 -78.4252348 174.87849845 C-78.4683304 162.31141869 -78.48904516 149.74447398 -78.48645347 137.17731845 C-78.48545773 130.12300284 -78.49369082 123.06897757 -78.52598763 116.01472855 C-78.55616489 109.38098302 -78.55529283 102.7477461 -78.53343773 96.11393356 C-78.53029589 93.67867387 -78.53741458 91.24337619 -78.5555191 88.80818176 C-78.57863109 85.48427562 -78.56478275 82.1624977 -78.54162598 78.83863831 C-78.55705667 77.87413793 -78.57248736 76.90963755 -78.58838564 75.91590989 C-78.49820703 70.06167871 -77.43198306 66.93098314 -73.33449805 62.6905086 C-69.6475309 59.56035862 -66.16162911 59.13774469 -61.45884705 59.16062927 C-59.89779488 59.16085587 -59.89779488 59.16085587 -58.3052063 59.16108704 C-56.63776115 59.17657089 -56.63776115 59.17657089 -54.93663025 59.19236755 C-53.78951065 59.19519745 -52.64239105 59.19802734 -51.46051025 59.20094299 C-47.80270382 59.21212309 -44.14514372 59.2372241 -40.4874115 59.26268005 C-38.00499316 59.27271264 -35.52257099 59.28183801 -33.04014587 59.2900238 C-26.95998394 59.31205535 -20.87996532 59.34551158 -14.7999115 59.38768005 C-14.80879395 58.77459991 -14.81767639 58.16151978 -14.826828 57.52986145 C-14.91544832 51.13832438 -14.97570681 44.74696239 -15.01963806 38.35496521 C-15.03973043 35.97077849 -15.06700931 33.5866409 -15.10166931 31.20262146 C-15.15029009 27.77199667 -15.17290462 24.3420245 -15.1905365 20.91111755 C-15.21118164 19.8483963 -15.23182678 18.78567505 -15.25309753 17.69075012 C-15.25488442 11.77288289 -15.01345615 7.93122276 -10.7999115 3.38768005 C-7.08325706 0.73123364 -4.54534694 0.01098695 0 0 Z M6.2000885 20.38768005 C6.2000885 33.25768005 6.2000885 46.12768005 6.2000885 59.38768005 C48.34914189 64.73147261 48.34914189 64.73147261 86.47064209 51.92202759 C91.41913354 47.04177066 95.56227 41.47212514 99.19862366 35.5634613 C101.41312169 32.04965423 103.90322911 29.07492453 106.71644592 26.03611755 C108.32458835 24.24935144 109.75775848 22.31078674 111.2000885 20.38768005 C76.5500885 20.38768005 41.9000885 20.38768005 6.2000885 20.38768005 Z M-57.7999115 80.38768005 C-57.7999115 153.31768005 -57.7999115 226.24768005 -57.7999115 301.38768005 C-52.06455002 296.49554853 -52.06455002 296.49554853 -46.67881775 291.3290863 C-45.97047791 290.61301208 -45.26213806 289.89693787 -44.53233337 289.15916443 C-43.08958989 287.69044896 -41.64688136 286.22169915 -40.20420837 284.75291443 C-36.87924561 281.39171229 -33.54607554 278.1140351 -29.95225525 275.0400238 C-29.04099868 274.22818115 -29.04099868 274.22818115 -28.11133289 273.39993763 C-26.4622561 271.96429839 -24.76236141 270.58618924 -23.03206158 269.24956036 C-17.86835319 264.85543027 -14.31552622 261.36335055 -13.57975638 254.41895926 C-13.39476964 250.4764965 -13.45385802 246.55959018 -13.5511322 242.61546326 C-13.55424007 240.84046625 -13.55248346 239.06545514 -13.54626465 237.29046631 C-13.54312455 232.50075572 -13.60751967 227.71411149 -13.68457818 222.9251101 C-13.75361957 217.90979834 -13.7598257 212.89440629 -13.77285767 207.87869263 C-13.80696704 198.39398912 -13.89712245 188.91069014 -14.00770205 179.4266035 C-14.13090645 168.623851 -14.19119706 157.82102931 -14.24635184 147.01774848 C-14.36114907 124.806769 -14.5627701 102.59771346 -14.7999115 80.38768005 C-28.9899115 80.38768005 -43.1799115 80.38768005 -57.7999115 80.38768005 Z " fill="#01AE8E" transform="translate(181.79991149902344,87.61231994628906)"/>
<path d="M0 0 C3.31265103 2.11196896 6.22616092 4.45232184 8 8 C8.09786287 9.3951334 8.13456983 10.79480289 8.1398077 12.19335461 C8.14549894 13.07780229 8.15119018 13.96224997 8.15705389 14.8734991 C8.15823376 15.85119944 8.15941364 16.82889979 8.16062927 17.83622742 C8.16571709 18.87021961 8.17080491 19.90421179 8.17604691 20.96953708 C8.19182563 24.45714767 8.20031072 27.94473748 8.20874023 31.43237305 C8.21827429 33.92374302 8.22816525 36.41511164 8.23838806 38.90647888 C8.26710934 46.39998809 8.28686242 53.89349702 8.30378041 61.38704011 C8.30857471 63.50331602 8.31355812 65.61959141 8.31858563 67.73586679 C8.34955744 80.87524775 8.37624543 94.01463309 8.39300442 107.15404034 C8.39695398 110.19831538 8.40095696 113.24259035 8.4050293 116.28686523 C8.40603766 117.04351421 8.40704602 117.80016319 8.40808494 118.57974092 C8.42508985 130.83551917 8.46619594 143.09109543 8.51705229 155.34677508 C8.56882743 167.92729965 8.59794658 180.50772036 8.6052013 193.08835059 C8.60986387 200.15279769 8.62461774 207.21691409 8.6649456 214.28125572 C8.70283885 220.92723683 8.71024369 227.57275657 8.69693947 234.21886635 C8.69699353 236.65897503 8.70733557 239.0991083 8.7286911 241.53912354 C8.75628408 244.86971939 8.74690151 248.19824278 8.72825623 251.52885437 C8.74505115 252.49540111 8.76184608 253.46194785 8.77914995 254.45778388 C8.69711061 260.31858585 7.63966144 263.45257846 3.53674054 267.69788116 C-0.06316401 270.74817065 -3.47191082 271.25079116 -8.06567383 271.22705078 C-9.04631302 271.22689972 -10.02695221 271.22674866 -11.03730774 271.22659302 C-12.0833165 271.21627045 -13.12932526 271.20594788 -14.20703125 271.1953125 C-15.28756271 271.1924826 -16.36809418 271.18965271 -17.48136902 271.18673706 C-20.92519301 271.17556132 -24.36875489 271.15046118 -27.8125 271.125 C-30.15038686 271.11496685 -32.48827781 271.10584158 -34.82617188 271.09765625 C-40.55087035 271.0756305 -46.27541645 271.04217868 -52 271 C-51.99000725 271.88203598 -51.99000725 271.88203598 -51.97981262 272.78189087 C-51.91333116 278.91394573 -51.86814623 285.04589782 -51.83520508 291.17822266 C-51.82013884 293.46537435 -51.79968203 295.75249725 -51.77368164 298.03955078 C-51.73720394 301.33112707 -51.72025166 304.62232062 -51.70703125 307.9140625 C-51.68380547 309.44252304 -51.68380547 309.44252304 -51.66011047 311.00186157 C-51.65844979 318.04159442 -52.53799702 322.21071386 -57.31636047 327.62428284 C-62.08963009 331.47179395 -67.95498888 330.68741131 -73.79492188 330.63110352 C-75.08338516 330.63825882 -76.37184845 330.64541412 -77.69935608 330.65278625 C-81.2222823 330.67125985 -84.74444916 330.65838823 -88.26734352 330.63869596 C-91.96009789 330.62227419 -95.6528055 330.63112724 -99.34558105 330.63621521 C-105.54610277 330.64073226 -111.74632244 330.62489073 -117.94677734 330.59692383 C-125.10762916 330.56487341 -132.26793632 330.56488876 -139.42882681 330.5821386 C-146.32734069 330.5980219 -153.22565555 330.59125862 -160.12416077 330.57420158 C-163.05547914 330.56734262 -165.98663744 330.56835157 -168.91795349 330.57574654 C-173.0139676 330.58485521 -177.10914555 330.56083555 -181.20507812 330.53344727 C-182.41772842 330.53997314 -183.63037872 330.54649902 -184.879776 330.55322266 C-191.20456212 330.48127988 -195.22674296 330.32418494 -200 326 C-203.38876708 322.1593973 -203.51890023 318.35527315 -203.34375 313.421875 C-202.50175253 307.48962009 -197.95460786 303.81959908 -193.85546875 299.8515625 C-191.97169773 297.97175731 -190.23385697 296.01828744 -188.5 294 C-185.74600117 290.80339422 -182.85187654 287.82659852 -179.84179688 284.87280273 C-178.07502218 283.07628514 -176.42335536 281.22685686 -174.78125 279.31640625 C-170.95957967 274.92148537 -166.99936136 270.67054052 -163 266.4375 C-162.32710937 265.72142578 -161.65421875 265.00535156 -160.9609375 264.26757812 C-158.98308597 262.16945184 -156.99476941 260.08204058 -155 258 C-154.35546875 257.32340332 -153.7109375 256.64680664 -153.046875 255.94970703 C-152.43328125 255.31790527 -151.8196875 254.68610352 -151.1875 254.03515625 C-150.37345703 253.19223022 -150.37345703 253.19223022 -149.54296875 252.33227539 C-146.13395534 249.38876492 -142.3247241 249.87901444 -138.05004883 249.88647461 C-136.99600609 249.88625557 -136.99600609 249.88625557 -135.92066956 249.8860321 C-133.59942532 249.88672843 -131.27826146 249.89450774 -128.95703125 249.90234375 C-127.3470616 249.90420892 -125.73709139 249.90563236 -124.12712097 249.90663147 C-119.89057853 249.91044882 -115.6540704 249.92027245 -111.4175415 249.93133545 C-107.09412093 249.94156636 -102.77069481 249.94613269 -98.44726562 249.95117188 C-89.96482801 249.96189541 -81.48241827 249.97896247 -73 250 C-73.00368717 249.04178282 -73.00737434 248.08356564 -73.01117325 247.09631157 C-73.099952 223.78609683 -73.16569376 200.47590401 -73.20724869 177.16555595 C-73.22787823 165.89286162 -73.25600642 154.62027893 -73.30175781 143.34765625 C-73.34161345 133.52300128 -73.36742996 123.69842716 -73.37635398 113.87369359 C-73.38157086 108.67103322 -73.39384075 103.46860418 -73.42292023 98.26601791 C-73.45006909 93.36916444 -73.45844601 88.4726376 -73.45243073 83.57571602 C-73.45353119 81.77860425 -73.46148822 79.98148157 -73.4768219 78.18443489 C-73.4967419 75.72947928 -73.49193239 73.27575472 -73.48101807 70.82077026 C-73.49266943 70.11063998 -73.5043208 69.4005097 -73.51632524 68.66886032 C-73.43932064 62.25511325 -70.70525828 58.81232657 -66.44921875 54.2890625 C-65.53785156 53.40992188 -64.62648438 52.53078125 -63.6875 51.625 C-60.59286621 48.63190198 -57.6522168 45.63500026 -54.85327148 42.36425781 C-50.87493413 37.79761534 -46.66791045 33.48873841 -42.3984375 29.1953125 C-41.59894684 28.39012177 -40.79945618 27.58493103 -39.97573853 26.75534058 C-38.29803983 25.06825907 -36.61893235 23.38257744 -34.93847656 21.69824219 C-32.36842254 19.11839748 -29.80922668 16.52808015 -27.25 13.9375 C-25.61263781 12.29361454 -23.97463913 10.65036274 -22.3359375 9.0078125 C-21.57437347 8.23390167 -20.81280945 7.45999084 -20.02816772 6.66262817 C-19.3103714 5.94783295 -18.59257507 5.23303772 -17.85302734 4.49658203 C-17.22794281 3.86785187 -16.60285828 3.2391217 -15.95883179 2.59133911 C-11.01300583 -1.42660992 -5.94461038 -1.77526761 0 0 Z M-37.92311096 48.70985413 C-59.48024597 71.22329732 -56.22874728 101.36696033 -55.59710121 130.58733559 C-55.41324298 137.86915753 -55.1165881 145.14571586 -54.80903876 152.4232012 C-54.36671033 163.08135174 -54.15710952 173.74065638 -53.96262062 184.40575016 C-53.55866826 206.28304185 -52.84595316 228.13503079 -52 250 C-38.8 250 -25.6 250 -12 250 C-12 177.4 -12 104.8 -12 30 C-20.11542006 30 -32.49297848 43.57996619 -37.92311096 48.70985413 Z M-150.86709595 283.29824829 C-152.33882605 285.50895556 -154.07344287 287.40506287 -155.87890625 289.34765625 C-156.39211426 289.9523877 -156.90532227 290.55711914 -157.43408203 291.18017578 C-161.12689734 295.47176376 -165.10774212 299.51461589 -169.00976562 303.61523438 C-169.65494141 304.29779297 -170.30011719 304.98035156 -170.96484375 305.68359375 C-171.84064087 306.60483032 -171.84064087 306.60483032 -172.73413086 307.54467773 C-174.1093814 308.80427992 -174.1093814 308.80427992 -174 310 C-140.67 310 -107.34 310 -73 310 C-73 297.13 -73 284.26 -73 271 C-84.21045147 270.59164491 -84.21045147 270.59164491 -95.421875 270.31640625 C-100.00788784 270.23321545 -104.58992967 270.13570296 -109.17285156 269.94384766 C-133.2745512 268.5314713 -133.2745512 268.5314713 -150.86709595 283.29824829 Z " fill="#02BB98" transform="translate(404,94)"/>
</svg>
